<svg xmlns="http://www.w3.org/2000/svg" enable-background="new 0 0 64 64" viewBox="0 0 64 64" id="ui-design"><path fill="#543f87" d="M25.75,47.42c-0.55,1.27-1.09,2.54-1.64,3.81l3.87,1.27l3.87-1.27l1.36-1.91l-1.36-1.91l-3.05-1.27
		L25.75,47.42z M25.75,47.42"></path><path fill="#403069" d="M37.96,47.42l-3.05-1.27l-3.05,1.27v3.81l3.87,1.27l3.87-1.27C39.05,49.96,38.5,48.69,37.96,47.42L37.96,47.42
		z M37.96,47.42"></path><path fill="#125b56" d="M8.69,34.71v12.7h23.17l1.36-6.35l-1.36-6.35l-9.54-1.27L8.69,34.71z M8.69,34.71"></path><path fill="#0d6d61" d="M55.02,15.66H35.94l-4.09,19.06v12.7h6.81l16.35-21.6V15.66z M55.02,15.66"></path><path fill="#9fa4bc" d="M11.41,34.71v6.35l10.22,1.27l10.22-1.27v-6.35l-9.54-1.27L11.41,34.71z M11.41,34.71"></path><path fill="#aaadba" d="M52.3,18.2H35.94l-4.09,16.52v6.35l2.73,1.27l4.09-1.27L52.3,25.82V18.2z M52.3,18.2"></path><path fill="#403069" d="M20.95,51.23v2.54h10.9l1.36-1.27l-1.36-1.27C30.54,51.23,22.28,51.23,20.95,51.23L20.95,51.23z M20.95,51.23"></path><path fill="#2b1f58" d="M42.76,51.23c-1.32,0-9.57,0-10.9,0v2.54h10.9C42.76,52.88,42.76,52.12,42.76,51.23L42.76,51.23z M42.76,51.23
		"></path><path fill="#869e9d" d="M11.41,41.07v3.81h20.44l1.36-1.91l-1.36-1.91C31.15,41.07,11.43,41.07,11.41,41.07L11.41,41.07z M11.41,41.07
		"></path><path fill="#777a99" d="M38.67,41.07c-0.46,0-6.35,0-6.81,0v3.81h6.81l1.36-1.27L38.67,41.07z M38.67,41.07"></path><path fill="#367070" d="M46.84,47.42c-0.99,0-7.18,0-8.18,0c0-0.61,0-20.99,0-21.6h8.18l1.36,10.8L46.84,47.42z M46.84,47.42"></path><path fill="#53797a" d="M55.02,47.42c-0.99,0-7.18,0-8.18,0c0-0.61,0-20.99,0-21.6h8.18V47.42z M55.02,47.42"></path><path fill="#d0f4ea" d="M41.39,44.88h5.45l1.36-8.26l-1.36-8.26c-0.66,0-4.79,0-5.45,0V44.88z M41.39,44.88"></path><path fill="#cde8ff" d="M46.84,44.88h5.45c0-0.92,0-15.6,0-16.52c-0.66,0-4.79,0-5.45,0V44.88z M46.84,44.88"></path><path fill="#cce6ff" d="M8.69,16.93v17.79h13.63c0-0.99,0-16.8,0-17.79l-6.81-1.27L8.69,16.93z M8.69,16.93"></path><path fill="#cde8ff" d="M35.94 16.93l-6.81-1.27-6.81 1.27v3.81l-1.36 5.08 1.36 5.08v3.81h13.63C35.94 33.73 35.94 17.91 35.94 16.93L35.94 16.93zM46.84 42.34c-.48 0-.89 0-1.36 0 0-.89 0-1.65 0-2.54h1.36l1.07 1.27L46.84 42.34zM46.84 42.34"></path><rect width="1.36" height="2.54" x="46.84" y="39.8" fill="#a3dbff"></rect><rect width="8.18" height="10.16" x="14.14" y="20.74" fill="#65aa9d"></rect><rect width="5.45" height="2.54" x="25.04" y="23.28" fill="#6678ea"></rect><rect width="5.45" height="2.54" x="25.04" y="28.36" fill="#6678ea"></rect><path fill="#28666b" d="M8.69,10.57v6.35h13.63l1.36-3.18l-1.36-3.18C21.39,10.57,9.61,10.57,8.69,10.57L8.69,10.57z M8.69,10.57"></path><path fill="#177272" d="M35.94,10.57c-0.92,0-12.71,0-13.63,0v6.35h13.63C35.94,15.22,35.94,11.57,35.94,10.57L35.94,10.57z
		 M35.94,10.57"></path></svg>